HIERARCHY
ROOT Hips
{
  OFFSET -189.66 92.4268 -194.775
  CHANNELS 6 Xposition Yposition Zposition Zrotation Xrotation Yrotation
  JOINT Spine
  {
    OFFSET 10.2832 1.67858 -0.048102
    CHANNELS 3 Zrotation Xrotation Yrotation
    JOINT Spine1
    {
      OFFSET 12.2747 3.29442 1.09098
      CHANNELS 3 Zrotation Xrotation Yrotation
      JOINT Neck
      {
        OFFSET 31.2239 8.00151 -0.587386
        CHANNELS 3 Zrotation Xrotation Yrotation
        JOINT Head
        {
          OFFSET 9.52751 0.295786 -0.907742
          CHANNELS 3 Zrotation Xrotation Yrotation
          End Site
          {
            OFFSET 16.4037 0.791643 2.7358
          }
        }
      }
      JOINT LeftShoulder
      {
        OFFSET 28.911 5.13152 2.01494
        CHANNELS 3 Zrotation Xrotation Yrotation
        JOINT LeftArm
        {
          OFFSET 1.20734 -0.998971 20.1238
          CHANNELS 3 Zrotation Xrotation Yrotation
          JOINT LeftForeArm
          {
            OFFSET 26.8049 -0.0536703 -0.155908
            CHANNELS 3 Zrotation Xrotation Yrotation
            JOINT LeftHand
            {
              OFFSET 26.6817 0 0.320147
              CHANNELS 3 Zrotation Xrotation Yrotation
              End Site
              {
                OFFSET 18.6119 0 0.382219
              }
            }
          }
        }
      }
      JOINT RightShoulder
      {
        OFFSET 28.9463 4.89009 -3.10871
        CHANNELS 3 Zrotation Xrotation Yrotation
        JOINT RightArm
        {
          OFFSET 2.83739 -1.17114 -18.7564
          CHANNELS 3 Zrotation Xrotation Yrotation
          JOINT RightForeArm
          {
            OFFSET 28.839 -0.0548439 1.22491
            CHANNELS 3 Zrotation Xrotation Yrotation
            JOINT RightHand
            {
              OFFSET 26.5114 0 -0.101894
              CHANNELS 3 Zrotation Xrotation Yrotation
              End Site
              {
                OFFSET 18.2168 0 0
              }
            }
          }
        }
      }
    }
  }
  JOINT LeftUpLeg
  {
    OFFSET -2.09119 -9.33082 -10.081
    CHANNELS 3 Zrotation Xrotation Yrotation
    JOINT LeftLeg
    {
      OFFSET 2.55951 -42.0585 -8.02213
      CHANNELS 3 Zrotation Xrotation Yrotation
      JOINT LeftFoot
      {
        OFFSET 3.16357 -42.5282 -3.95426
        CHANNELS 3 Zrotation Xrotation Yrotation
        JOINT LeftToeBase
        {
          OFFSET 0.346054 -6.02161 12.8035
          CHANNELS 3 Zrotation Xrotation Yrotation
          End Site
          {
            OFFSET 0.134235 -1.35082 5.13018
          }
        }
      }
    }
  }
  JOINT RightUpLeg
  {
    OFFSET -2.27102 -8.83155 10.7989
    CHANNELS 3 Zrotation Xrotation Yrotation
    JOINT RightLeg
    {
      OFFSET -2.56294 -42.0364 -7.94377
      CHANNELS 3 Zrotation Xrotation Yrotation
      JOINT RightFoot
      {
        OFFSET -3.0952 -42.555 -4.02241
        CHANNELS 3 Zrotation Xrotation Yrotation
        JOINT RightToeBase
        {
          OFFSET -0.0828122 -6.13587 12.8035
          CHANNELS 3 Zrotation Xrotation Yrotation
          End Site
          {
            OFFSET -0.131328 -1.35082 5.13018
          }
        }
      }
    }
  }
}
MOTION
Frames:	19
Frame Time:	0.0333333
-26.3623 89.9166 -68.8564 69.4792 -31.0514 -12.4654 -164.629 15.3168 171.594 2.65276 24.9701 3.70113 -136.991 31.9348 158.449 -147.104 73.694 -170.719 0.406769 -13.498 -29.7164 -68.5135 56.9752 -72.0384 8.12585 15.2943 -28.8467 0.420957 0.000575378 0.35866 -2.27597 6.49557 49.2276 -80.45 -19.2521 93.7176 11.3382 -10.4463 47.9414 0.58676 0.000331036 0.0646653 -24.3959 -0.799558 100.33 -2.5597 41.6061 -5.01114 1.60842 -1.01539 -0.362154 2.52124 -6.92517 5.38421 -46.0768 -1.69713 82.2034 14.8526 78.4172 -14.9625 -8.39567 6.96697 1.20261 2.31147 -19.5652 -9.97185 
-24.3619 90.0404 -68.0535 68.8967 -30.295 -13.3133 -166.391 15.3829 171.214 1.69543 25.0692 3.63113 -137.885 32.5493 158.793 -149.466 74.2839 -168.674 0.421705 -13.4619 -29.4536 -68.3681 55.9371 -73.998 8.64296 14.8186 -30.3726 0.420957 0.000575378 0.35866 -2.30386 6.53372 49.4309 -80.2449 -18.3753 94.9175 10.589 -10.8566 44.8687 0.58676 0.000331036 0.0646653 -24.2413 -1.17513 101.827 -2.86679 43.4859 -5.97601 2.37088 -2.82161 -0.557921 1.60542 -5.34189 5.94475 -38.722 -3.65101 82.5443 32.1704 84.7847 -38.3665 -10.3263 4.17988 1.53481 1.8977 -14.687 -3.00363 
-22.6773 90.4074 -67.0895 67.9564 -28.9124 -13.5574 -167.416 15.6751 170.859 1.01303 24.6344 4.35158 -138.341 33.0691 159.46 -152.194 74.7978 -165.524 0.424466 -13.4338 -29.5402 -67.6813 54.6997 -76.4086 8.95109 14.455 -31.8983 0.420957 0.000575378 0.35866 -2.33531 6.69254 49.0686 -79.7707 -17.9803 96.2874 10.4624 -11.8111 42.1406 0.58676 0.000331036 0.0646653 -23.8669 -1.15575 102.901 -3.17782 44.7569 -7.43118 2.64279 -4.27995 -0.667493 2.27766 -6.86009 6.98466 -31.7409 -4.5448 82.6949 51.157 86.1724 -56.5922 -8.75569 1.54902 1.2794 1.97951 -13.7567 -7.17179 
-21.054 90.6728 -65.9049 67.2639 -27.1821 -13.2457 -168.863 15.8501 170.805 0.0940776 24.3061 5.20092 -138.544 33.7563 158.872 -151.649 75.5149 -165.557 0.25631 -14.1785 -30.2196 -68.9512 52.9632 -76.3917 9.05218 13.6054 -33.7609 0.420957 0.000575378 0.35866 -2.30043 6.52093 49.4479 -78.9278 -16.561 96.4155 9.27594 -11.0636 40.5206 0.58676 0.000331036 0.0646653 -23.5189 -1.26864 103.055 -3.57062 46.3378 -9.05806 1.74318 -6.54317 -0.729921 2.88418 -8.57623 9.91514 -26.2891 -5.14695 82.511 32.4125 84.6879 -37.8481 -7.90806 -2.15719 1.1913 1.76074 -13.7969 -1.84213 
-19.531 90.7733 -64.8469 66.5625 -25.8367 -12.8387 -170.657 16.0715 171.236 -1.00201 23.9156 5.85681 -138.789 34.1441 158.537 -151.696 75.9423 -164.508 0.20077 -14.5116 -29.9534 -71.2112 52.3677 -76.0682 9.856 14.0911 -35.1412 0.420957 0.000575378 0.35866 -2.2774 6.50238 49.213 -78.7477 -16.0371 96.8282 8.64461 -10.8364 39.1007 0.58676 0.000331036 0.0646653 -23.3046 -1.11871 103.195 -3.93215 47.689 -10.5908 3.1567 -8.13159 -0.913517 4.39669 -11.5578 12.8561 -21.7304 -4.79158 83.2336 21.1915 80.6693 -18.441 -2.87614 -5.49936 0.807779 2.41304 -12.7027 -16.9332 
-18.1374 90.9152 -63.8013 65.8942 -24.1766 -12.7414 -172.029 16.6234 171.977 -1.27784 23.6081 5.13799 -139.066 34.461 158.287 -153.04 76.3232 -162.249 0.191589 -14.6743 -29.4053 -71.9886 51.7434 -76.6381 9.75709 13.1698 -36.6771 0.420957 0.000575378 0.35866 -2.28524 6.56732 48.9924 -78.4624 -15.8898 97.3532 8.00377 -10.3993 38.0852 0.58676 0.000331036 0.0646653 -22.7731 -1.4315 102.97 -4.27559 49.4193 -11.1275 2.92115 -11.0885 -1.06078 3.89879 -10.8167 13.2201 -18.2384 -5.61618 82.0729 10.2277 73.4256 -7.47995 -5.93503 -6.28666 1.07998 2.48758 -14.6628 -20.6777 
-16.8278 90.9635 -62.6085 65.0723 -22.7768 -12.5631 -173.61 16.8226 171.843 -2.59914 23.2599 6.13933 -139.514 35.2488 158.386 -154.818 77.0628 -160.227 0.142682 -14.8732 -29.6545 -72.3755 50.953 -76.9016 10.1867 13.1677 -37.8876 0.420957 0.000575378 0.35866 -2.24028 6.37891 49.3177 -78.4431 -14.6461 97.1221 7.28841 -9.60996 37.6557 0.58676 0.000331036 0.0646653 -21.9714 -0.95436 103.463 -4.56379 51.1243 -10.964 1.18144 -13.6985 -1.19035 4.2874 -11.3416 12.5483 -15.7138 -5.51449 82.1624 6.89197 65.5163 0.47995 -3.74091 -6.98187 0.946338 2.57367 -15.5904 -26.2963 
-15.4619 90.784 -61.3868 64.0576 -21.4539 -12.6212 -174.234 17.1175 172.104 -2.54749 23.1421 5.76579 -140.687 35.6211 157.859 -154.638 77.3602 -160.27 0.143229 -14.9987 -29.0956 -73.3413 50.7566 -76.5261 11.1287 13.5837 -39.5432 0.420957 0.000575378 0.35866 -2.34814 6.63005 49.5654 -78.4324 -13.8732 96.9674 7.37868 -9.89083 37.205 0.58676 0.000331036 0.0646653 -20.9219 -0.806675 103.504 -5.12926 53.1336 -12.3207 3.46456 -14.5679 -1.25257 5.11158 -12.8989 14.7825 -13.4172 -5.78666 81.7409 4.21548 56.5881 2.11772 -3.61524 -4.87665 0.839712 2.31515 -16.5291 -17.0489 
-14.1654 90.6038 -60.2331 63.4222 -20.2772 -12.5322 -175.513 17.3467 172.378 -3.05091 23.0126 5.83632 -142.065 36.2118 157.906 -153.775 77.7488 -161.364 0.102673 -15.2579 -28.9165 -74.1357 50.7741 -75.9166 11.3517 13.3869 -40.5175 0.420957 0.000575378 0.35866 -2.30339 6.54142 49.3844 -78.4213 -13.4286 97.1069 7.04747 -9.56125 36.8648 0.58676 0.000331036 0.0646653 -20.0529 -1.02203 102.924 -5.68352 55.2895 -12.7677 2.518 -16.6647 -1.37707 4.23717 -11.801 16.6716 -12.3269 -5.68078 81.4067 3.4355 48.6441 6.60107 -2.35371 -0.849659 0.49936 2.34418 -16.3432 -18.361 
-12.7853 90.0252 -59.1313 62.8097 -19.3586 -12.6229 -176.466 17.4433 172.491 -3.3538 22.9881 5.95515 -142.478 36.5889 157.305 -152.846 78.1262 -161.385 0.0768283 -15.3563 -29.0714 -73.9723 50.4431 -75.6894 10.9228 12.6286 -41.0325 0.420957 0.000575378 0.35866 -2.2792 6.50796 49.21 -78.2622 -12.6477 97.0679 6.74146 -9.20761 36.6778 0.58676 0.000331036 0.0646653 -18.8877 -1.04412 102.825 -6.42543 58.1016 -12.6887 3.24418 -17.9521 -1.43195 3.83058 -11.2142 16.7865 -11.0751 -5.57124 81.3749 3.24718 43.7652 10.3092 0.369922 5.58175 -0.348092 2.29507 -17.7643 -19.6875 
-11.386 89.335 -57.9434 62.5285 -18.3595 -12.4178 -177.59 17.4974 172.763 -3.60987 22.8714 6.2206 -143.095 37.3728 157.424 -155.567 78.8474 -158.606 0.0295696 -15.5439 -29.3097 -73.5536 50.3566 -75.5218 10.6975 12.2824 -41.2099 0.420957 0.000575378 0.35866 -2.20115 6.3546 48.8706 -78.126 -12.0546 97.2422 6.81375 -9.40744 36.3982 0.58676 0.000331036 0.0646653 -18.0231 -1.2626 102.2 -7.30715 60.9394 -12.1652 4.10586 -19.2298 -1.46392 3.54689 -10.8243 16.9999 -9.90906 -5.96096 80.7184 3.05077 42.4398 9.83393 1.45002 7.9917 -0.753872 2.28362 -16.3386 -15.0377 
-9.90422 88.5947 -56.7175 61.8915 -17.8531 -12.3369 -178.043 17.4412 173.469 -2.96297 23.0829 5.61755 -144.473 37.9552 157.361 -155.621 79.2609 -158.927 0.0518712 -15.5605 -28.7976 -73.9963 50.9922 -75.0592 11.0638 12.6079 -41.4506 0.420957 0.000575378 0.35866 -2.29317 6.60061 48.9363 -77.9252 -11.1102 97.3822 6.31221 -8.87581 35.8965 0.58676 0.000331036 0.0646653 -16.8299 -0.969368 101.626 -8.41723 64.0184 -10.6921 4.03332 -21.0374 -1.55149 2.21619 -8.69655 16.1685 -8.61874 -5.93723 79.6142 3.10185 43.7337 9.06258 2.60137 9.12666 -1.09473 2.1812 -11.6483 -12.645 
-8.45513 87.7851 -55.4619 61.7236 -17.4346 -12.0752 -179.514 17.274 173.937 -3.64043 22.9457 6.11529 -144.893 38.5196 157.905 -157.962 79.7313 -156.208 -0.000999524 -15.6456 -29.5296 -73.5317 50.8237 -74.4439 10.2763 11.771 -41.2469 0.420957 0.000575378 0.35866 -2.3487 6.78952 48.7739 -77.3331 -10.1641 97.6106 5.81386 -8.46119 34.9699 0.58676 0.000331036 0.0646653 -16.0439 -0.706309 100.933 -9.95144 67.1036 -9.3542 4.68182 -22.0141 -1.55319 0.676639 -6.28297 15.8851 -7.4363 -5.89091 79.3401 3.25129 48.1704 5.63151 -1.27843 1.95583 0.182736 0.988939 3.25099 -7.28934 
-7.14912 87.0125 -54.1529 61.3972 -16.8116 -11.9185 179.095 17.4385 174.68 -4.20437 22.8402 5.95701 -145.601 38.9628 158.387 -159.144 80.0468 -154.997 0.0398431 -15.4296 -29.5481 -72.9417 50.9744 -74.4483 9.92332 11.7158 -40.3802 0.420957 0.000575378 0.35866 -2.36671 6.91747 48.4009 -76.623 -9.85264 98.6401 5.3783 -8.16699 33.8433 0.58676 0.000331036 0.0646653 -14.8566 -0.342265 100.454 -12.2878 70.443 -7.6638 4.16957 -22.4278 -1.60723 -0.0892135 -5.00741 15.5313 -6.56847 -5.18897 80.8272 3.39245 51.504 3.14291 -2.72588 -2.65089 0.641641 0.855451 0.589655 -5.58081 
-5.93703 86.125 -52.8824 60.6553 -16.5756 -11.2906 177.02 17.128 176.282 -5.73785 22.9082 6.02069 -146.122 39.4709 158.789 -162.293 80.4402 -151.92 -0.0272867 -15.715 -29.7803 -72.4341 51.0616 -73.9706 9.4778 11.4937 -39.6081 0.420957 0.000575378 0.35866 -2.35398 7.02322 47.7283 -76.9186 -10.1504 98.9783 5.43594 -8.38648 33.432 0.58676 0.000331036 0.0646653 -12.8138 0.836819 99.1385 -16.8227 74.4897 -5.22868 2.40345 -20.294 -1.60191 3.57854 -10.6351 15.3685 -4.36262 -4.22109 80.8747 3.98494 55.7568 1.74463 -2.66038 -6.60992 0.850963 0.750077 8.61484 -7.56604 
-4.84815 85.1218 -51.6206 60.2124 -16.0488 -11.2864 175.399 17.3273 176.955 -6.52862 23.0022 5.70997 -147.004 39.6202 158.777 -160.364 80.5125 -153.731 -0.0337554 -15.808 -29.5552 -72.4451 51.2626 -73.6135 9.49181 11.7455 -39.051 0.420957 0.000575378 0.35866 -2.41847 7.21287 47.7177 -76.2832 -9.27636 100.139 5.05615 -8.05112 32.6165 0.58676 0.000331036 0.0646653 -10.7571 1.84409 97.9092 -26.0798 78.7645 0.14095 1.86852 -18.9167 -1.53809 6.41157 -15.062 17.851 -2.05946 -3.66586 81.0675 4.2495 60.0418 -2.04057 -8.49146 -6.55462 1.27342 0.466268 3.57169 -4.66952 
-3.90092 83.818 -50.453 59.9517 -15.8027 -11.5231 173.849 17.4216 176.904 -7.44426 23.0329 5.86818 -147.559 39.7508 158.873 -160.136 80.5807 -153.882 -0.0967659 -16.0936 -29.6951 -72.165 50.935 -73.1445 9.66283 12.0657 -38.813 0.420957 0.000575378 0.35866 -2.40159 7.15078 47.7774 -75.4561 -8.01463 101.613 4.60458 -7.6925 31.4035 0.58676 0.000331036 0.0646653 -8.66359 2.97302 96.8978 -50.8442 82.985 20.7166 0.815484 -17.881 -1.50113 11.3408 -21.5926 23.1595 0.0203361 -2.81352 81.9016 5.16557 64.2723 -3.95787 -9.29616 -8.39749 1.32641 1.1067 1.27505 -7.31807 
-3.03412 82.3428 -49.4265 60.1424 -15.6191 -10.7365 171.962 17.1735 178.105 -7.68534 22.8655 5.70791 -148.028 39.7139 158.529 -158.908 80.5276 -154.772 -0.149448 -16.4443 -29.4225 -71.186 50.9595 -73.8405 9.07421 11.4795 -38.4175 0.420957 0.000575378 0.35866 -2.41021 7.21369 47.6049 -75.5348 -6.9187 102.797 4.46451 -7.68879 30.6514 0.58676 0.000331036 0.0646653 -7.29236 4.34052 95.2734 -105.044 84.0848 77.0922 -0.203465 -17.6735 -1.51415 13.5519 -24.218 24.0664 1.87371 -1.9863 82.0507 6.94137 69.1629 -6.38084 -7.50555 -12.941 1.28284 1.54178 7.07265 -10.7651 
-2.11009 80.7419 -48.5843 60.0543 -15.2761 -10.8312 170.673 17.4638 178.887 -7.93137 22.8345 5.05065 -148.682 39.5739 158.943 -160.098 80.3081 -153.646 -0.202762 -16.5822 -29.8718 -71.0982 50.1426 -73.6161 9.39073 12.0119 -38.1329 0.420957 0.000575378 0.35866 -2.47352 7.62939 46.6078 -76.0008 -7.54699 103.726 4.55721 -8.06425 29.9829 0.58676 0.000331036 0.0646653 -6.22223 5.28423 94.3349 -145.799 79.2265 121.443 0.377284 -17.889 -1.51495 10.5966 -20.6135 24.3706 4.00568 -1.15982 82.9419 9.35644 73.6634 -9.63748 -9.53512 -13.9982 1.31061 2.2228 2.50269 -13.8054 
